<svg xmlns="http://www.w3.org/2000/svg" viewBox="0 0 381.407 381.407"><path d="M373.323 246.354a6.966 6.966 0 00-3.203-1.721l-65.6-15-8-13.12 68.44-78.68a6.959 6.959 0 00-3.48-11.56l-110.6-25.6-58.52-97.2a6.92 6.92 0 00-12 0l-58.48 97.2-110.6 25.6a6.92 6.92 0 00-3.68 11.28l74.4 85.76-9.8 113.16a6.92 6.92 0 009.6 7l104.56-44.36 8.24 3.52 3.52 4-5.8 66.92a6.92 6.92 0 009.6 7l62.04-25.92 61.24 25.96a6.96 6.96 0 0010.2-6.72l-5.8-67.24 44-50.44a6.959 6.959 0 00-.277-9.839zM87.04 326.194l9.08-104.56a6.958 6.958 0 00-2.04-5.56l-68.44-78.84 102.24-23.68a6.922 6.922 0 004.56-3.44l53.92-89.68 54.12 89.92a6.918 6.918 0 004.4 3.2l102.24 23.68-58 66.8-19.16-32a6.92 6.92 0 00-12 0l-34.56 57.6-65.4 15.12a6.92 6.92 0 00-3.68 11.28l26.4 30.4-93.68 39.76zm230.2-26.16a6.918 6.918 0 00-1.68 5.12l5.08 58.36-54.04-22.96a6.92 6.92 0 00-5.36 0l-53.92 22.84 5.08-58.32a6.958 6.958 0 00-2.04-5.56l-38.04-44 57.04-12.88a6.922 6.922 0 004.56-3.44l30.04-49.92 30.16 50.16a6.921 6.921 0 004.48 3.2l57.04 13.2-38.4 44.2z"/></svg>