<svg xmlns="http://www.w3.org/2000/svg" viewBox="0 0 480.091 480.091"><path d="M436.374 215.974c-19.585-69.973-74.265-124.653-144.238-144.238 17.607-13.211 21.171-38.193 7.961-55.8A39.859 39.859 0 00268.072 0h-64c-22.012-.08-39.92 17.7-40 39.711a39.856 39.856 0 0015.936 32.025C69.384 102.7 4.807 217.478 35.77 328.102 66.733 438.726 181.512 503.303 292.136 472.34c110.624-30.963 175.201-145.742 144.238-256.366zM204.072 16h64c13.255 0 24 10.745 24 24s-10.745 24-24 24h-64c-13.255 0-24-10.745-24-24s10.745-24 24-24zm32 448c-106.039 0-192-85.961-192-192s85.961-192 192-192 192 85.961 192 192c-.123 105.988-86.012 191.877-192 192z"/><path d="M68.072 32c-22.091 0-40 17.909-40 40 .026 22.08 17.92 39.974 40 40 22.091 0 40-17.909 40-40s-17.909-40-40-40zm0 64c-13.255 0-24-10.745-24-24s10.745-24 24-24 24 10.745 24 24-10.745 24-24 24zm344-64c-22.091 0-40 17.909-40 40 .026 22.08 17.92 39.974 40 40 22.091 0 40-17.909 40-40s-17.909-40-40-40zm0 64c-13.255 0-24-10.745-24-24s10.745-24 24-24 24 10.745 24 24-10.745 24-24 24zm-176 0v16c85.217.097 155.442 66.894 159.8 152H258.6c-4.418-12.497-18.131-19.046-30.627-14.627-12.497 4.418-19.046 18.131-14.627 30.627s18.131 19.046 30.627 14.627A23.998 23.998 0 00258.6 280h145.472a8 8 0 008-8c-.11-97.156-78.844-175.89-176-176zm0 184a8 8 0 110-16 8 8 0 010 16zm90.481 93.794l11.314-11.314 33.94 33.941-11.313 11.314zM228.072 408h16v48h-16zm-127.82-11.555l33.94-33.94 11.315 11.313-33.941 33.94zM52.072 264h48v16h-48zm48.238-116.445l11.314-11.313 33.94 33.94-11.313 11.314z"/></svg>