<svg height="512" viewBox="0 0 24 24" width="512" xmlns="http://www.w3.org/2000/svg"><path d="M6.5 21h-2a.5.5 0 010-1h2a.5.5 0 010 1zm5 0h-1a.5.5 0 010-1h.5V4.5a.5.5 0 00-.5-.5H.5a.5.5 0 010-1h10c.827 0 1.5.673 1.5 1.5v16a.5.5 0 01-.5.5zm11 0h-2a.5.5 0 010-1h2a.5.5 0 00.5-.5V10h-8v10h1.5a.5.5 0 010 1h-2a.5.5 0 01-.5-.5v-11a.5.5 0 01.5-.5h9a.5.5 0 01.5.5v10c0 .827-.673 1.5-1.5 1.5z"/><path d="M7.5 16a.5.5 0 01-.5-.5v-9a.5.5 0 011 0v9a.5.5 0 01-.5.5zm-5 0a.5.5 0 01-.5-.5v-9a.5.5 0 011 0v9a.5.5 0 01-.5.5zm16 7c-1.378 0-2.5-1.121-2.5-2.5s1.122-2.5 2.5-2.5 2.5 1.121 2.5 2.5-1.122 2.5-2.5 2.5zm0-4c-.827 0-1.5.673-1.5 1.5s.673 1.5 1.5 1.5 1.5-.673 1.5-1.5-.673-1.5-1.5-1.5zm-10 4C7.122 23 6 21.879 6 20.5S7.122 18 8.5 18s2.5 1.121 2.5 2.5S9.878 23 8.5 23zm0-4c-.827 0-1.5.673-1.5 1.5S7.673 22 8.5 22s1.5-.673 1.5-1.5S9.327 19 8.5 19zm-6 4C1.122 23 0 21.879 0 20.5S1.122 18 2.5 18 5 19.121 5 20.5 3.878 23 2.5 23zm0-4c-.827 0-1.5.673-1.5 1.5S1.673 22 2.5 22 4 21.327 4 20.5 3.327 19 2.5 19zm19-9a.5.5 0 01-.5-.5C21 6.468 18.533 4 15.5 4H15v5.5a.5.5 0 01-1 0v-6a.5.5 0 01.5-.5h1C19.084 3 22 5.916 22 9.5a.5.5 0 01-.5.5zm2 6h-6a.5.5 0 01-.5-.5v-3a.5.5 0 01.5-.5h6a.5.5 0 010 1H18v2h5.5a.5.5 0 010 1z"/><path d="M14.5 21h-3a.5.5 0 010-1h3a.5.5 0 010 1z"/></svg>