<?xml version="1.0" encoding="iso-8859-1"?>
<!-- Generator: Adobe Illustrator 19.0.0, SVG Export Plug-In . SVG Version: 6.00 Build 0)  -->
<svg version="1.1" id="Capa_1" xmlns="http://www.w3.org/2000/svg" xmlns:xlink="http://www.w3.org/1999/xlink" x="0px" y="0px"
	 viewBox="0 0 381.407 381.407" style="enable-background:new 0 0 381.407 381.407;" xml:space="preserve">
<g>
	<g>
		<path d="M373.323,246.354c-0.896-0.847-2.002-1.441-3.203-1.721l-65.6-15l-8-13.12l68.44-78.68
			c2.641-2.793,2.517-7.198-0.277-9.839c-0.896-0.847-2.002-1.441-3.203-1.721l-110.6-25.6l-58.52-97.2
			c-1.904-3.314-6.134-4.456-9.448-2.552c-1.062,0.61-1.942,1.491-2.552,2.552l-58.48,97.2l-110.6,25.6
			c-3.725,0.854-6.052,4.567-5.198,8.292c0.254,1.105,0.775,2.132,1.518,2.988l74.4,85.76l-9.8,113.16
			c-0.349,3.806,2.453,7.174,6.259,7.523c1.14,0.105,2.288-0.075,3.341-0.523l104.56-44.36l8.24,3.52l3.52,4l-5.8,66.92
			c-0.349,3.806,2.453,7.174,6.259,7.523c1.14,0.105,2.288-0.075,3.341-0.523l62.04-25.92l61.24,25.96
			c3.395,1.802,7.609,0.511,9.411-2.884c0.625-1.177,0.899-2.508,0.789-3.836l-5.8-67.24l44-50.44
			C376.241,253.4,376.117,248.995,373.323,246.354z M87.04,326.194l9.08-104.56c0.182-2.065-0.566-4.103-2.04-5.56l-68.44-78.84
			l102.24-23.68c1.944-0.437,3.606-1.69,4.56-3.44l53.92-89.68l54.12,89.92c0.968,1.623,2.558,2.779,4.4,3.2l102.24,23.68l-58,66.8
			l-19.16-32c-1.904-3.314-6.134-4.456-9.448-2.552c-1.062,0.61-1.942,1.491-2.552,2.552l-34.56,57.6l-65.4,15.12
			c-3.725,0.854-6.052,4.567-5.198,8.292c0.253,1.105,0.775,2.132,1.518,2.988l26.4,30.4L87.04,326.194z M317.24,300.034
			c-1.229,1.41-1.835,3.256-1.68,5.12l5.08,58.36l-54.04-22.96c-1.714-0.72-3.646-0.72-5.36,0l-53.92,22.84l5.08-58.32
			c0.182-2.065-0.566-4.103-2.04-5.56l-38.04-44l57.04-12.88c1.944-0.437,3.606-1.69,4.56-3.44l30.04-49.92l30.16,50.16
			c0.987,1.64,2.608,2.799,4.48,3.2h0l57.04,13.2L317.24,300.034z"/>
	</g>
</g>
<g>
</g>
<g>
</g>
<g>
</g>
<g>
</g>
<g>
</g>
<g>
</g>
<g>
</g>
<g>
</g>
<g>
</g>
<g>
</g>
<g>
</g>
<g>
</g>
<g>
</g>
<g>
</g>
<g>
</g>
</svg>
