<?xml version="1.0" encoding="iso-8859-1"?>
<!-- Generator: Adobe Illustrator 19.0.0, SVG Export Plug-In . SVG Version: 6.00 Build 0)  -->
<svg version="1.1" id="Capa_1" xmlns="http://www.w3.org/2000/svg" xmlns:xlink="http://www.w3.org/1999/xlink" x="0px" y="0px"
	 viewBox="0 0 480.091 480.091" style="enable-background:new 0 0 480.091 480.091;" xml:space="preserve">
<g>
	<g>
		<path d="M436.374,215.974c-19.585-69.973-74.265-124.653-144.238-144.238c17.607-13.211,21.171-38.193,7.961-55.8
			C292.539,5.863,280.665-0.045,268.072,0h-64c-22.012-0.08-39.92,17.7-40,39.711c-0.046,12.593,5.863,24.467,15.936,32.025
			C69.384,102.7,4.807,217.478,35.77,328.102C66.733,438.726,181.512,503.303,292.136,472.34
			C402.76,441.377,467.337,326.598,436.374,215.974z M204.072,16h64c13.255,0,24,10.745,24,24s-10.745,24-24,24h-64
			c-13.255,0-24-10.745-24-24S190.817,16,204.072,16z M236.072,464c-106.039,0-192-85.961-192-192s85.961-192,192-192
			s192,85.961,192,192C427.949,377.988,342.06,463.877,236.072,464z"/>
	</g>
</g>
<g>
	<g>
		<path d="M68.072,32c-22.091,0-40,17.909-40,40c0.026,22.08,17.92,39.974,40,40c22.091,0,40-17.909,40-40S90.163,32,68.072,32z
			 M68.072,96c-13.255,0-24-10.745-24-24s10.745-24,24-24s24,10.745,24,24S81.327,96,68.072,96z"/>
	</g>
</g>
<g>
	<g>
		<path d="M412.072,32c-22.091,0-40,17.909-40,40c0.026,22.08,17.92,39.974,40,40c22.091,0,40-17.909,40-40S434.163,32,412.072,32z
			 M412.072,96c-13.255,0-24-10.745-24-24s10.745-24,24-24s24,10.745,24,24S425.327,96,412.072,96z"/>
	</g>
</g>
<g>
	<g>
		<path d="M236.072,96v16c85.217,0.097,155.442,66.894,159.8,152H258.6c-4.418-12.497-18.131-19.046-30.627-14.627
			c-12.497,4.418-19.046,18.131-14.627,30.627s18.131,19.046,30.627,14.627c6.835-2.416,12.211-7.793,14.627-14.627h145.472
			c4.418,0,8-3.582,8-8C411.962,174.844,333.228,96.11,236.072,96z M236.072,280c-4.418,0-8-3.582-8-8s3.582-8,8-8s8,3.582,8,8
			S240.49,280,236.072,280z"/>
	</g>
</g>
<g>
	<g>
		<rect x="341.184" y="361.135" transform="matrix(0.7071 -0.7071 0.7071 0.7071 -170.0565 359.6867)" width="16" height="48"/>
	</g>
</g>
<g>
	<g>
		<rect x="228.072" y="408" width="16" height="48"/>
	</g>
</g>
<g>
	<g>
		<rect x="98.883" y="377.133" transform="matrix(0.7071 -0.7071 0.7071 0.7071 -236.3388 199.6943)" width="48" height="16"/>
	</g>
</g>
<g>
	<g>
		<rect x="52.072" y="264" width="48" height="16"/>
	</g>
</g>
<g>
	<g>
		<rect x="114.938" y="134.879" transform="matrix(0.7071 -0.7071 0.7071 0.7071 -76.3353 133.4551)" width="16" height="48"/>
	</g>
</g>
<g>
</g>
<g>
</g>
<g>
</g>
<g>
</g>
<g>
</g>
<g>
</g>
<g>
</g>
<g>
</g>
<g>
</g>
<g>
</g>
<g>
</g>
<g>
</g>
<g>
</g>
<g>
</g>
<g>
</g>
</svg>
