<svg id="_x31_" enable-background="new 0 0 24 24" height="512" viewBox="0 0 24 24" width="512" xmlns="http://www.w3.org/2000/svg"><g><g><g><path d="m6.5 21h-2c-.276 0-.5-.224-.5-.5s.224-.5.5-.5h2c.276 0 .5.224.5.5s-.224.5-.5.5z"/></g></g></g><g><g><g><path d="m11.5 21h-1c-.276 0-.5-.224-.5-.5s.224-.5.5-.5h.5v-15.5c0-.275-.224-.5-.5-.5h-10c-.276 0-.5-.224-.5-.5s.224-.5.5-.5h10c.827 0 1.5.673 1.5 1.5v16c0 .276-.224.5-.5.5z"/></g></g></g><g><g><g><path d="m22.5 21h-2c-.276 0-.5-.224-.5-.5s.224-.5.5-.5h2c.276 0 .5-.225.5-.5v-9.5h-8v10h1.5c.276 0 .5.224.5.5s-.224.5-.5.5h-2c-.276 0-.5-.224-.5-.5v-11c0-.276.224-.5.5-.5h9c.276 0 .5.224.5.5v10c0 .827-.673 1.5-1.5 1.5z"/></g></g></g><g><g><g><path d="m7.5 16c-.276 0-.5-.224-.5-.5v-9c0-.276.224-.5.5-.5s.5.224.5.5v9c0 .276-.224.5-.5.5z"/></g></g></g><g><g><g><path d="m2.5 16c-.276 0-.5-.224-.5-.5v-9c0-.276.224-.5.5-.5s.5.224.5.5v9c0 .276-.224.5-.5.5z"/></g></g></g><g><g><g><path d="m18.5 23c-1.378 0-2.5-1.121-2.5-2.5s1.122-2.5 2.5-2.5 2.5 1.121 2.5 2.5-1.122 2.5-2.5 2.5zm0-4c-.827 0-1.5.673-1.5 1.5s.673 1.5 1.5 1.5 1.5-.673 1.5-1.5-.673-1.5-1.5-1.5z"/></g></g></g><g><g><g><path d="m8.5 23c-1.378 0-2.5-1.121-2.5-2.5s1.122-2.5 2.5-2.5 2.5 1.121 2.5 2.5-1.122 2.5-2.5 2.5zm0-4c-.827 0-1.5.673-1.5 1.5s.673 1.5 1.5 1.5 1.5-.673 1.5-1.5-.673-1.5-1.5-1.5z"/></g></g></g><g><g><g><path d="m2.5 23c-1.378 0-2.5-1.121-2.5-2.5s1.122-2.5 2.5-2.5 2.5 1.121 2.5 2.5-1.122 2.5-2.5 2.5zm0-4c-.827 0-1.5.673-1.5 1.5s.673 1.5 1.5 1.5 1.5-.673 1.5-1.5-.673-1.5-1.5-1.5z"/></g></g></g><g><g><g><path d="m21.5 10c-.276 0-.5-.224-.5-.5 0-3.032-2.467-5.5-5.5-5.5h-.5v5.5c0 .276-.224.5-.5.5s-.5-.224-.5-.5v-6c0-.276.224-.5.5-.5h1c3.584 0 6.5 2.916 6.5 6.5 0 .276-.224.5-.5.5z"/></g></g></g><g><g><g><path d="m23.5 16h-6c-.276 0-.5-.224-.5-.5v-3c0-.276.224-.5.5-.5h6c.276 0 .5.224.5.5s-.224.5-.5.5h-5.5v2h5.5c.276 0 .5.224.5.5s-.224.5-.5.5z"/></g></g></g><g><g><g><path d="m14.5 21h-3c-.276 0-.5-.224-.5-.5s.224-.5.5-.5h3c.276 0 .5.224.5.5s-.224.5-.5.5z"/></g></g></g></svg>